# File created by Blade
# Date/Time:  Tue Jan 27 19:32:37 2015
# Frame Rate: 120.000 fps
#------------------------------------------------------
:FULLY-SPECIFIED
:DEGREES
3128
root 3.480754 32.214864 0.142001 -5.851397 -2.701544 -0.552593
Spine 2.945452 -5.404016 -0.799986
Head 24.490971 -36.404044 -9.297209
LeftShoulder -5.670787 -4.800373 26.251243
LeftArm -0.637713 42.294947 -99.706468
LeftForeArm 3.814251 -0.000000 12.735405
LeftHand 9.965224 0.000000 -5.222267
LeftHandThumb1 -26.253704 0.000000 33.147579
RightShoulder -18.468960 -24.466427 -30.265742
RightArm 24.010233 -32.722911 23.841998
RightForeArm 9.375350 -0.000000 101.925963
RightHand 28.794008 -0.000000 -16.509834
RightHandThumb1 -24.326973 -0.000000 -32.862282
LeftUpLeg 13.636985 4.942401 0.033520
LeftLeg 2.104827 -0.000000 -0.000000
LeftFoot -21.804472 17.501850 -23.456160
LeftToeBase 16.360893 -0.000000 -0.000000
RightUpLeg 11.146560 -6.133150 2.183336
RightLeg 1.420005 -0.000000 -0.000000
RightFoot -13.460781 -13.141034 14.414407
RightToeBase 11.456209 -0.000000 -0.000000
3129
root 3.480310 32.216701 0.140926 -5.878835 -2.683624 -0.557316
Spine 3.007834 -5.364920 -0.813509
Head 24.478936 -36.439759 -9.260698
LeftShoulder -5.609666 -4.814641 26.212195
LeftArm -0.581880 42.486623 -99.644235
LeftForeArm 3.756231 0.000000 12.749727
LeftHand 10.024354 -0.000000 -5.374023
LeftHandThumb1 -26.253704 0.000000 33.147579
RightShoulder -18.273962 -24.525292 -30.312807
RightArm 23.914679 -32.990442 24.227069
RightForeArm 9.243840 -0.000000 101.709697
RightHand 28.664309 -0.000000 -16.673555
RightHandThumb1 -24.326973 -0.000000 -32.862282
LeftUpLeg 13.657904 4.971088 0.051685
LeftLeg 2.108892 -0.000000 -0.000000
LeftFoot -21.771663 17.465344 -23.441446
LeftToeBase 16.334299 -0.000000 -0.000000
RightUpLeg 11.188410 -6.128279 2.189363
RightLeg 1.390824 -0.000000 -0.000000
RightFoot -13.394959 -13.153637 14.374016
RightToeBase 11.564831 -0.000000 -0.000000
3130
root 3.481966 32.218552 0.139851 -5.908009 -2.646561 -0.553098
Spine 3.077975 -5.336120 -0.830731
Head 24.465210 -36.483932 -9.255660
LeftShoulder -5.544684 -4.867064 26.171997
LeftArm -0.555466 42.679048 -99.601436
LeftForeArm 3.738298 0.000000 12.759604
LeftHand 10.031826 0.000000 -5.487201
LeftHandThumb1 -26.253704 0.000000 33.147579
RightShoulder -18.146226 -24.558191 -30.321888
RightArm 23.844849 -33.213116 24.579518
RightForeArm 8.986302 -0.000000 101.534013
RightHand 28.590122 -0.000000 -16.616929
RightHandThumb1 -24.326973 -0.000000 -32.862282
LeftUpLeg 13.686466 4.974686 0.053219
LeftLeg 2.092762 -0.000000 -0.000000
LeftFoot -21.723293 17.442730 -23.417661
LeftToeBase 16.389460 -0.000000 -0.000000
RightUpLeg 11.232505 -6.180464 2.174364
RightLeg 1.357503 -0.000000 -0.000000
RightFoot -13.401169 -13.178790 14.417562
RightToeBase 11.479282 -0.000000 -0.000000
3131
root 3.481972 32.219612 0.137781 -5.929246 -2.613478 -0.556325
Spine 3.138839 -5.291993 -0.843558
Head 24.464009 -36.536374 -9.277037
LeftShoulder -5.463612 -4.938497 26.137475
LeftArm -0.535198 42.924349 -99.568178
LeftForeArm 3.672644 -0.000000 12.746066
LeftHand 10.010346 -0.000000 -5.522461
LeftHandThumb1 -26.253704 0.000000 33.147579
RightShoulder -18.101040 -24.606742 -30.270437
RightArm 23.832205 -33.384817 24.840204
RightForeArm 8.737557 -0.000000 101.397183
RightHand 28.572352 -0.000000 -16.639164
RightHandThumb1 -24.326973 -0.000000 -32.862282
LeftUpLeg 13.701641 4.978347 0.063693
LeftLeg 2.087196 -0.000000 -0.000000
LeftFoot -21.665572 17.397894 -23.406972
LeftToeBase 16.229306 -0.000000 -0.000000
RightUpLeg 11.280153 -6.222591 2.168809
RightLeg 1.303187 -0.000000 -0.000000
RightFoot -13.380901 -13.160126 14.471372
RightToeBase 11.522434 -0.000000 -0.000000
3132
root 3.481990 32.220583 0.135412 -5.936827 -2.570663 -0.560791
Spine 3.180805 -5.270270 -0.852032
Head 24.471417 -36.578620 -9.312108
LeftShoulder -5.391775 -5.012406 26.099182
LeftArm -0.524943 43.116390 -99.533271
LeftForeArm 3.670044 -0.000000 12.720377
LeftHand 10.027468 -0.000000 -5.583470
LeftHandThumb1 -26.253704 0.000000 33.147579
RightShoulder -18.090366 -24.580755 -30.213038
RightArm 23.881505 -33.577590 25.032321
RightForeArm 8.490325 -0.000000 101.301569
RightHand 28.527427 -0.000000 -16.579908
RightHandThumb1 -24.326973 -0.000000 -32.862282
LeftUpLeg 13.704665 4.945645 0.065991
LeftLeg 2.072475 -0.000000 -0.000000
LeftFoot -21.677780 17.410647 -23.413957
LeftToeBase 16.344493 -0.000000 -0.000000
RightUpLeg 11.308058 -6.271931 2.163534
RightLeg 1.262818 -0.000000 -0.000000
RightFoot -13.336901 -13.145804 14.460707
RightToeBase 11.518628 -0.000000 -0.000000
3133
root 3.483039 32.220844 0.133290 -5.935284 -2.516247 -0.558854
Spine 3.209882 -5.256280 -0.862191
Head 24.475194 -36.596100 -9.359750
LeftShoulder -5.321814 -5.093030 26.072951
LeftArm -0.529477 43.270732 -99.523710
LeftForeArm 3.662720 -0.000000 12.695884
LeftHand 9.974888 -0.000000 -5.595870
LeftHandThumb1 -26.253704 0.000000 33.147579
RightShoulder -18.100789 -24.518466 -30.166181
RightArm 23.948782 -33.824314 25.176071
RightForeArm 8.457831 -0.000000 101.247379
RightHand 28.528690 -0.000000 -16.421342
RightHandThumb1 -24.326973 -0.000000 -32.862282
LeftUpLeg 13.700034 4.885567 0.052934
LeftLeg 2.052240 -0.000000 -0.000000
LeftFoot -21.680422 17.429280 -23.400430
LeftToeBase 16.396282 -0.000000 -0.000000
RightUpLeg 11.334494 -6.372456 2.146618
RightLeg 1.209052 -0.000000 -0.000000
RightFoot -13.302050 -13.123617 14.437058
RightToeBase 11.533188 -0.000000 -0.000000
3134
root 3.482149 32.220585 0.130303 -5.924276 -2.460684 -0.561647
Spine 3.226402 -5.251500 -0.869597
Head 24.457522 -36.591522 -9.390276
LeftShoulder -5.251904 -5.172499 26.058373
LeftArm -0.541314 43.404273 -99.515654
LeftForeArm 3.662644 0.000000 12.666345
LeftHand 9.957457 -0.000000 -5.655826
LeftHandThumb1 -26.253704 0.000000 33.147579
RightShoulder -18.114106 -24.447242 -30.129802
RightArm 24.013104 -34.096959 25.304561
RightForeArm 8.642294 -0.000000 101.249382
RightHand 28.738669 -0.000000 -16.462731
RightHandThumb1 -24.326973 -0.000000 -32.862282
LeftUpLeg 13.680571 4.874599 0.059957
LeftLeg 2.041781 -0.000000 -0.000000
LeftFoot -21.658661 17.405354 -23.379220
LeftToeBase 16.399862 -0.000000 -0.000000
RightUpLeg 11.353989 -6.453247 2.141132
RightLeg 1.150205 -0.000000 -0.000000
RightFoot -13.252192 -13.092472 14.406869
RightToeBase 11.693312 -0.000000 -0.000000
3135
root 3.483128 32.219895 0.128134 -5.908028 -2.410244 -0.557609
Spine 3.231862 -5.234083 -0.867418
Head 24.446502 -36.569420 -9.465744
LeftShoulder -5.190892 -5.232158 26.037410
LeftArm -0.528668 43.511554 -99.499603
LeftForeArm 3.626645 -0.000000 12.632909
LeftHand 9.932487 -0.000000 -5.621458
LeftHandThumb1 -26.253704 0.000000 33.147579
RightShoulder -18.104599 -24.383685 -30.133726
RightArm 23.986500 -34.296920 25.562002
RightForeArm 8.641824 0.000000 101.311579
RightHand 28.776247 -0.000000 -16.070253
RightHandThumb1 -24.326973 -0.000000 -32.862282
LeftUpLeg 13.669451 4.851600 0.052142
LeftLeg 2.009092 -0.000000 -0.000000
LeftFoot -21.635550 17.393711 -23.354389
LeftToeBase 16.393554 -0.000000 -0.000000
RightUpLeg 11.372538 -6.526114 2.124778
RightLeg 1.085726 -0.000000 -0.000000
RightFoot -13.230768 -13.065302 14.417644
RightToeBase 11.763341 -0.000000 -0.000000
3136
root 3.484050 32.219560 0.125143 -5.882615 -2.357571 -0.553929
Spine 3.228910 -5.242749 -0.861260
Head 24.406340 -36.518816 -9.520147
LeftShoulder -5.149671 -5.274558 26.021479
LeftArm -0.513674 43.588615 -99.478971
LeftForeArm 3.568115 0.000000 12.606142
LeftHand 9.887704 -0.000000 -5.565008
LeftHandThumb1 -26.253704 0.000000 33.147579
RightShoulder -18.075375 -24.336928 -30.161008
RightArm 23.924712 -34.455374 25.852091
RightForeArm 8.805026 0.000000 101.478071
RightHand 28.590446 -0.000000 -15.940032
RightHandThumb1 -24.326973 -0.000000 -32.862282
LeftUpLeg 13.644934 4.810607 0.041480
LeftLeg 1.979725 -0.000000 -0.000000
LeftFoot -21.615259 17.383647 -23.350128
LeftToeBase 16.431937 -0.000000 -0.000000
RightUpLeg 11.378953 -6.586637 2.113061
RightLeg 1.023026 -0.000000 -0.000000
RightFoot -13.210942 -13.052808 14.420380
RightToeBase 11.754712 -0.000000 -0.000000
3137
root 3.486148 32.219966 0.122157 -5.852603 -2.327488 -0.540323
Spine 3.215187 -5.209815 -0.856936
Head 24.357469 -36.468619 -9.562956
LeftShoulder -5.095346 -5.321386 26.008951
LeftArm -0.501596 43.599798 -99.467875
LeftForeArm 3.561959 -0.000000 12.573380
LeftHand 9.905130 -0.000000 -5.532495
LeftHandThumb1 -26.253704 0.000000 33.147579
RightShoulder -17.962458 -24.458643 -30.201912
RightArm 23.735415 -34.475447 26.334416
RightForeArm 8.781401 -0.000000 101.697742
RightHand 28.661666 0.000000 -15.782066
RightHandThumb1 -24.326973 -0.000000 -32.862282
LeftUpLeg 13.618816 4.843934 0.036378
LeftLeg 1.951358 -0.000000 -0.000000
LeftFoot -21.551645 17.329682 -23.307918
LeftToeBase 16.425262 -0.000000 -0.000000
RightUpLeg 11.367086 -6.639952 2.088335
RightLeg 0.981853 -0.000000 -0.000000
RightFoot -13.197264 -13.008313 14.440465
RightToeBase 11.808478 -0.000000 -0.000000
